<mxfile host="Electron" agent="Mozilla/5.0 (Windows NT 10.0; Win64; x64) AppleWebKit/537.36 (KHTML, like Gecko) draw.io/26.0.16 Chrome/132.0.6834.196 Electron/34.2.0 Safari/537.36" version="26.0.16">
  <diagram name="Page-1" id="WohcAXIxx4Q0qr68rvJE">
    <mxGraphModel dx="2403" dy="2798" grid="1" gridSize="10" guides="1" tooltips="1" connect="1" arrows="1" fold="1" page="1" pageScale="1" pageWidth="850" pageHeight="1100" math="0" shadow="0">
      <root>
        <mxCell id="0" />
        <mxCell id="1" parent="0" />
        <mxCell id="eSazXd_5sIVWehsi0C56-1" value="" style="rounded=1;whiteSpace=wrap;html=1;strokeColor=#0070F2;fillColor=#EBF8FF;arcSize=24;absoluteArcSize=1;imageWidth=64;imageHeight=64;strokeWidth=1.5;fontFamily=Arial;" parent="1" vertex="1">
          <mxGeometry x="-1400" y="-2146" width="410" height="346" as="geometry" />
        </mxCell>
        <mxCell id="eSazXd_5sIVWehsi0C56-2" value="" style="shape=image;verticalLabelPosition=bottom;labelBackgroundColor=default;verticalAlign=top;aspect=fixed;imageAspect=0;image=data:image/svg+xml,PHN2ZyB4bWxuczp4bGluaz0iaHR0cDovL3d3dy53My5vcmcvMTk5OS94bGluayIgeG1sbnM9Imh0dHA6Ly93d3cudzMub3JnLzIwMDAvc3ZnIiB2aWV3Qm94PSIwIDAgMTQ0Ljc0NyAzOS44MzIiIGlkPSJhIj48ZGVmcz48bGluZWFyR3JhZGllbnQgZ3JhZGllbnRVbml0cz0idXNlclNwYWNlT25Vc2UiIHkyPSIzOS44MzIiIHgyPSI0MC4yNTgiIHkxPSIwIiB4MT0iNDAuMjU4IiBpZD0iYiI+PHN0b3Agc3RvcC1jb2xvcj0iIzAwYjhmMSIgb2Zmc2V0PSIwIi8+PHN0b3Agc3RvcC1jb2xvcj0iIzAwYjVlZiIgb2Zmc2V0PSIuMDE2Ii8+PHN0b3Agc3RvcC1jb2xvcj0iIzBkOTBkOCIgb2Zmc2V0PSIuMzA4Ii8+PHN0b3Agc3RvcC1jb2xvcj0iIzE2NzVjOCIgb2Zmc2V0PSIuNTc4Ii8+PHN0b3Agc3RvcC1jb2xvcj0iIzFjNjRiZSIgb2Zmc2V0PSIuODE3Ii8+PHN0b3Agc3RvcC1jb2xvcj0iIzFlNWZiYiIgb2Zmc2V0PSIxIi8+PC9saW5lYXJHcmFkaWVudD48L2RlZnM+PHBvbHlsaW5lIGZpbGwtcnVsZT0iZXZlbm9kZCIgZmlsbD0idXJsKCNiKSIgcG9pbnRzPSIwIDM5LjgzMiA0MC42OTIgMzkuODMyIDgwLjUxNyAwIDAgMCAwIDM5LjgzMiIvPjxwYXRoIGZpbGwtcnVsZT0iZXZlbm9kZCIgZmlsbD0iI2ZmZiIgZD0ibTQ3Ljc4Miw3LjQ4OWwtNy45MjUtLjAwNXYxOC44NDVsLTYuOTI0LTE4Ljg0NWgtNi44NjVsLTUuOTEyLDE1Ljc1OWMtLjYzLTMuOTczLTQuNzQtNS4zNDUtNy45NzQtNi4zNzQtMi4xMzUtLjY4Ni00LjQwMS0xLjY5NC00LjM4LTIuODA5LjAxNy0uOTE1LDEuMjE1LTEuNzY1LDMuNTg5LTEuNjM3LDEuNTk1LjA4NCwzLjAwMS4yMTMsNS44LDEuNTYzbDIuNzUzLTQuNzk1Yy0yLjU1NS0xLjMtNi4wODYtMi4xMjEtOC45NzgtMi4xMjRoLS4wMTdjLTMuMzc0LDAtNi4xODUsMS4wOTMtNy45MjgsMi44OTQtMS4yMTQsMS4yNTgtMS44NjksMi44NTYtMS44OTYsNC42MjMtLjA0NCwyLjQzMi44NDgsNC4xNTcsMi43MjEsNS41MzMsMS41ODMsMS4xNiwzLjYwNiwxLjkxMiw1LjM5LDIuNDY1LDIuMjAxLjY4MSwzLjk5NiwxLjI3NCwzLjk3NSwyLjUzOS0uMDE2LjQ1OS0uMTkxLjg4OC0uNTIxLDEuMjM2LS41NDguNTY2LTEuMzkxLjc3OS0yLjU1NS43OTktMi4yNDQuMDQ4LTMuOTEtLjMwMy02LjU2Mi0xLjg3bC0yLjQ0OCw0Ljg2MWMyLjY0NCwxLjUwNiw1Ljc3NiwyLjM4OCw4Ljk3MiwyLjM4OGwuNDExLS4wMDZjMi43ODItLjA1LDUuMDI2LS44NDIsNi44Mi0yLjI4Ni4xMDMtLjA4MS4xOTYtLjE2Ni4yOTEtLjI1bC0uNzk1LDIuMTIzaDcuMmwxLjIwOC0zLjY3NGMxLjI2NS40MzMsMi43MDQuNjcxLDQuMjMyLjY3MSwxLjQ4NywwLDIuODg5LS4yMjksNC4xMzEtLjYzNWwxLjE2NCwzLjYzN2gxMS43NDJ2LTcuNjA3aDIuNTYxYzYuMTg4LDAsOS44NTEtMy4xNTQsOS44NTEtOC40MzYsMC01Ljg4NS0zLjU1Ny04LjU4NS0xMS4xMzItOC41ODVabS0xOC4zMTcsMTYuMTI0Yy0uOTI1LDAtMS43OTItLjE2LTIuNTM5LS40NDNsMi41MTItNy45MjZoLjA0OGwyLjQ2OCw3Ljk0OGMtLjc0Mi4yNjMtMS41ODkuNDIxLTIuNDg4LjQyMVptMTguNzgzLTQuNTUzaC0xLjc0NnYtNi4zODZoMS43NDZjMi4zMjgsMCw0LjE4NS43NzMsNC4xODUsMy4xNTEsMCwyLjQ2MS0xLjg1NywzLjIzNi00LjE4NSwzLjIzNiIvPjxwYXRoIGZpbGw9IiMwMDJhODYiIGQ9Im04MC4yMTcsNy40MDFoMTAuMDYzYzUuNTk1LDAsOC42NzQsMS45MTcsOC42NzQsNi4xNTgsMCwyLjkwMy0xLjUxMyw1LjAxNC00LjMxMSw1LjcsMy4yOS40NTgsNS4yNzgsMi41ODYsNS4yNzgsNS44OTQsMCw1LjAxNC00LjA2NCw3LjAzNy05LjE4NCw3LjAzN2gtMTAuNTIxVjcuNDAxWm0xMy45NjksNi44MjZjMC0yLjE2NC0xLjQ5Ni0yLjk3My00LjI0LTIuOTczaC01LjA0OXY2LjI5OGg0Ljg5MWMzLjIwMiwwLDQuMzk4LTEuMTYxLDQuMzk4LTMuMzI1Wm0xLjAyMSwxMC41MjFjMC0yLjM1Ny0xLjc3Ny0zLjQ2Ni00LjgzOS0zLjQ2NmgtNS40NzF2Ny4wNTVoNS41MDZjMi44MTUsMCw0LjgwNC0uNzc0LDQuODA0LTMuNTg5WiIvPjxwYXRoIGZpbGw9IiMwMDJhODYiIGQ9Im0xMDkuMDUxLDExLjVoLTcuNTgzdi00LjA5OWgxOS44NDZ2NC4wOTloLTcuNTY1djIwLjY5aC00LjY5N1YxMS41WiIvPjxwYXRoIGZpbGw9IiMwMDJhODYiIGQ9Im0xMjUuMTQ4LDcuNDAxaDEwLjUwNGM2LjE5MiwwLDkuMDk2LDMuMTg1LDkuMDk2LDcuODk5LDAsNC4zOTgtMi44MzMsOC4xNDYtOC44NSw4LjE0NmgtNi4wN3Y4Ljc0NGgtNC42OFY3LjQwMVptMTQuOTAyLDcuOTUyYzAtMi41NTEtMS42ODktMy45MjMtNC45NDQtMy45MjNoLTUuMjc4djguMDRoNS40MTljMy4yNzIsMCw0LjgwNC0xLjU4Myw0LjgwNC00LjExN1oiLz48L3N2Zz4=;strokeWidth=1.5;rounded=1;dashed=1;dashPattern=1 2;strokeColor=#475E75;align=center;arcSize=24;fontFamily=Arial;fontSize=12;fontColor=default;fillColor=#F5F6F7;" parent="1" vertex="1">
          <mxGeometry x="-1385" y="-2127" width="107.34" height="28" as="geometry" />
        </mxCell>
        <mxCell id="eSazXd_5sIVWehsi0C56-14" value="" style="rounded=1;whiteSpace=wrap;html=1;strokeColor=#0070f2;strokeWidth=1.5;arcSize=24;fillColor=#FFFFFF;perimeterSpacing=0;absoluteArcSize=1;fontFamily=Arial;" parent="1" vertex="1">
          <mxGeometry x="-1389" y="-2085" width="389" height="275" as="geometry" />
        </mxCell>
        <mxCell id="eSazXd_5sIVWehsi0C56-16" style="edgeStyle=orthogonalEdgeStyle;rounded=0;orthogonalLoop=1;jettySize=auto;html=1;exitX=1;exitY=0.5;exitDx=0;exitDy=0;entryX=0;entryY=0.5;entryDx=0;entryDy=0;entryPerimeter=0;" parent="1" source="eSazXd_5sIVWehsi0C56-3" target="aDKdUsI1WbSAfZWMsAr5-3" edge="1">
          <mxGeometry relative="1" as="geometry">
            <mxPoint x="-1100" y="-1933" as="targetPoint" />
          </mxGeometry>
        </mxCell>
        <mxCell id="eSazXd_5sIVWehsi0C56-3" value="" style="rounded=1;whiteSpace=wrap;html=1;strokeColor=#cc00dc;fillColor=#FFF0FA;arcSize=24;absoluteArcSize=1;imageWidth=64;imageHeight=64;strokeWidth=1.5;fontFamily=Arial;" parent="1" vertex="1">
          <mxGeometry x="-1365" y="-2031" width="196" height="196" as="geometry" />
        </mxCell>
        <mxCell id="eSazXd_5sIVWehsi0C56-10" value="&lt;font face=&quot;arial&quot; color=&quot;#1d2d3e&quot;&gt;&lt;b&gt;SAP Cloud Application&lt;/b&gt;&lt;/font&gt;&lt;div&gt;&lt;font face=&quot;arial&quot; color=&quot;#1d2d3e&quot;&gt;&lt;b&gt;Programming&amp;nbsp;&lt;/b&gt;&lt;/font&gt;&lt;b style=&quot;color: rgb(29, 45, 62); font-family: arial; background-color: initial;&quot;&gt;Model (CAP)&lt;/b&gt;&lt;/div&gt;" style="text;html=1;align=left;verticalAlign=middle;resizable=0;points=[];autosize=1;strokeColor=none;fillColor=none;fontSize=12;fontColor=default;fontFamily=Helvetica;" parent="1" vertex="1">
          <mxGeometry x="-1350" y="-2020.5" width="171" height="41" as="geometry" />
        </mxCell>
        <mxCell id="eSazXd_5sIVWehsi0C56-11" value="&lt;span style=&quot;color: rgb(29, 45, 62); font-family: Arial;&quot;&gt;OpenAI Platform&lt;br&gt;&lt;/span&gt;&lt;i style=&quot;color: rgb(29, 45, 62); font-family: Arial; font-weight: 400;&quot;&gt;GPT-4 LLM&lt;/i&gt;" style="rounded=1;whiteSpace=wrap;html=1;strokeColor=#475E75;fillColor=#F5F6F7;arcSize=16;absoluteArcSize=1;imageWidth=64;imageHeight=64;strokeWidth=1.5;fontFamily=Helvetica;align=center;verticalAlign=middle;fontSize=12;fontColor=default;spacingLeft=0;spacingTop=0;spacing=8;fontStyle=1;" parent="1" vertex="1">
          <mxGeometry x="-920" y="-2031" width="134" height="34" as="geometry" />
        </mxCell>
        <mxCell id="eSazXd_5sIVWehsi0C56-12" value="&lt;span style=&quot;color: rgb(29, 45, 62); font-family: Arial;&quot;&gt;OpenAI Platform&lt;br&gt;&lt;/span&gt;&lt;i style=&quot;color: rgb(29, 45, 62); font-family: Arial; font-weight: 400;&quot;&gt;GPT-4o LLM&lt;/i&gt;" style="rounded=1;whiteSpace=wrap;html=1;strokeColor=#475E75;fillColor=#F5F6F7;arcSize=16;absoluteArcSize=1;imageWidth=64;imageHeight=64;strokeWidth=1.5;fontFamily=Helvetica;align=center;verticalAlign=middle;fontSize=12;fontColor=default;spacingLeft=0;spacingTop=0;spacing=8;fontStyle=1;" parent="1" vertex="1">
          <mxGeometry x="-920" y="-1869" width="134" height="34" as="geometry" />
        </mxCell>
        <mxCell id="eSazXd_5sIVWehsi0C56-17" style="edgeStyle=orthogonalEdgeStyle;rounded=0;orthogonalLoop=1;jettySize=auto;html=1;exitX=1;exitY=0.5;exitDx=0;exitDy=0;entryX=0;entryY=0.5;entryDx=0;entryDy=0;" parent="1" target="eSazXd_5sIVWehsi0C56-11" edge="1">
          <mxGeometry relative="1" as="geometry">
            <Array as="points">
              <mxPoint x="-960" y="-1933" />
              <mxPoint x="-960" y="-2014" />
            </Array>
            <mxPoint x="-1052" y="-1933" as="sourcePoint" />
          </mxGeometry>
        </mxCell>
        <mxCell id="eSazXd_5sIVWehsi0C56-18" style="edgeStyle=orthogonalEdgeStyle;rounded=0;orthogonalLoop=1;jettySize=auto;html=1;exitX=1;exitY=0.5;exitDx=0;exitDy=0;entryX=0;entryY=0.5;entryDx=0;entryDy=0;exitPerimeter=0;" parent="1" source="aDKdUsI1WbSAfZWMsAr5-3" target="eSazXd_5sIVWehsi0C56-12" edge="1">
          <mxGeometry relative="1" as="geometry">
            <Array as="points">
              <mxPoint x="-960" y="-1933" />
              <mxPoint x="-960" y="-1852" />
            </Array>
            <mxPoint x="-1047" y="-1933" as="sourcePoint" />
          </mxGeometry>
        </mxCell>
        <mxCell id="eSazXd_5sIVWehsi0C56-15" value="&lt;font style=&quot;font-size: 16px;&quot;&gt;&lt;b style=&quot;font-size: 16px;&quot;&gt;Subaccount&lt;/b&gt;&lt;/font&gt;" style="text;html=1;align=left;verticalAlign=middle;resizable=0;points=[];autosize=1;strokeColor=none;fillColor=none;fontSize=12;fontColor=#1d2d3e;fontFamily=Arial;" parent="1" vertex="1">
          <mxGeometry x="-1365" y="-2071" width="120" height="30" as="geometry" />
        </mxCell>
        <mxCell id="aDKdUsI1WbSAfZWMsAr5-3" value=" SAP Digital &#xa;Assistant Service" style="shape=image;verticalLabelPosition=bottom;verticalAlign=top;aspect=fixed;imageAspect=0;image=data:image/svg+xml,PHN2ZyB4bWxucz0iaHR0cDovL3d3dy53My5vcmcvMjAwMC9zdmciIGZpbGw9Im5vbmUiIHZpZXdCb3g9IjAgMCA0OCA0OCIgaGVpZ2h0PSI0OCIgd2lkdGg9IjQ4Ij4mI3hhOzxjaXJjbGUgc3Ryb2tlLXdpZHRoPSIwLjgyMTQyOSIgc3Ryb2tlPSIjRDVEQUREIiBmaWxsPSJ1cmwoI3BhaW50MF9saW5lYXJfMzIxOV8yMDA4OCkiIHI9IjIyLjU4OTMiIGN5PSIyNCIgY3g9IjI0Ii8+JiN4YTs8ZyBjbGlwLXBhdGg9InVybCgjY2xpcDBfMzIxOV8yMDA4OCkiPiYjeGE7PHBhdGggZmlsbD0idXJsKCNwYWludDFfbGluZWFyXzMyMTlfMjAwODgpIiBkPSJNMTguNDQyMyAxMS41QzE4LjAyNTIgMTEuNSAxNy42MzAzIDExLjY5MDUgMTcuMzY3NCAxMi4wMTg1TDExLjMwOTcgMTkuNTc2N0MxMC45MTE5IDIwLjA3MyAxMC44OTU3IDIwLjc3ODkgMTEuMjcwNCAyMS4yOTM0TDIzLjM4NTggMzcuOTNDMjMuNjQ2OCAzOC4yODg1IDI0LjA2MDMgMzguNSAyNC41IDM4LjVDMjQuOTM5NyAzOC41IDI1LjM1MzIgMzguMjg4NSAyNS42MTQyIDM3LjkzTDM3LjcyOTYgMjEuMjkzNEMzOC4xMDQzIDIwLjc3ODkgMzguMDg4MSAyMC4wNzMgMzcuNjkwMyAxOS41NzY3TDMxLjYzMjYgMTIuMDE4NUMzMS4zNjk3IDExLjY5MDUgMzAuOTc0OCAxMS41IDMwLjU1NzcgMTEuNUgxOC40NDIzWk0zMi4xODAyIDIwLjM0NjRDMjkuMzIxNSAxOS44NTgzIDI4LjQwNjcgMTcuNTgzIDI4LjEwNDUgMTYuMTU5OUMyOC4wNzE4IDE2LjAxOTIgMjcuODkyMSAxNi4wMjc1IDI3Ljg2NzYgMTYuMTY4MkMyNy4zODU3IDE5LjA2NCAyNS4xMzk2IDE5Ljk5MDYgMjMuNzM0OCAyMC4yOTY4QzIzLjU5NTkgMjAuMzI5OSAyMy42MDQxIDIwLjUxMTkgMjMuNzQyOSAyMC41MzY3QzI2LjYwMTYgMjEuMDI0OSAyNy41MTY0IDIzLjMwMDEgMjcuODE4NiAyNC43MjMyQzI3Ljg1MTMgMjQuODYzOSAyOC4wMzEgMjQuODU1NiAyOC4wNTU1IDI0LjcxNUMyOC41Mzc0IDIxLjgxOTEgMzAuNzgzNSAyMC44OTI1IDMyLjE4ODMgMjAuNTg2M0MzMi4zMjcyIDIwLjU1MzMgMzIuMzE5IDIwLjM3MTIgMzIuMTgwMiAyMC4zNDY0WiIgY2xpcC1ydWxlPSJldmVub2RkIiBmaWxsLXJ1bGU9ImV2ZW5vZGQiLz4mI3hhOzwvZz4mI3hhOzxkZWZzPiYjeGE7PGxpbmVhckdyYWRpZW50IGdyYWRpZW50VW5pdHM9InVzZXJTcGFjZU9uVXNlIiB5Mj0iNDMuNDAwOCIgeDI9IjQwLjM1MzUiIHkxPSI3LjUyODk3IiB4MT0iNS4xNzE1IiBpZD0icGFpbnQwX2xpbmVhcl8zMjE5XzIwMDg4Ij4mI3hhOzxzdG9wIHN0b3AtY29sb3I9IndoaXRlIi8+JiN4YTs8c3RvcCBzdG9wLWNvbG9yPSIjRUFFQ0VFIiBvZmZzZXQ9IjEiLz4mI3hhOzwvbGluZWFyR3JhZGllbnQ+JiN4YTs8bGluZWFyR3JhZGllbnQgZ3JhZGllbnRVbml0cz0idXNlclNwYWNlT25Vc2UiIHkyPSIzNC40NDk1IiB4Mj0iMzMuOTUyNyIgeTE9IjE1LjUzNzciIHgxPSIxNS4wNDc0IiBpZD0icGFpbnQxX2xpbmVhcl8zMjE5XzIwMDg4Ij4mI3hhOzxzdG9wIHN0b3AtY29sb3I9IiMwMTk1RkYiLz4mI3hhOzxzdG9wIHN0b3AtY29sb3I9IiMxMTQ3RTkiIG9mZnNldD0iMC45OTEwMjgiLz4mI3hhOzwvbGluZWFyR3JhZGllbnQ+JiN4YTs8Y2xpcFBhdGggaWQ9ImNsaXAwXzMyMTlfMjAwODgiPiYjeGE7PHJlY3QgdHJhbnNmb3JtPSJ0cmFuc2xhdGUoMTEgMTEuNSkiIGZpbGw9IndoaXRlIiBoZWlnaHQ9IjI3IiB3aWR0aD0iMjciLz4mI3hhOzwvY2xpcFBhdGg+JiN4YTs8L2RlZnM+JiN4YTs8L3N2Zz4=;points=[[0,0,0,0,0],[0,0.25,0,0,0],[0,0.5,0,0,0],[0,0.75,0,0,0],[0.25,0,0,0,0],[0.5,0,0,0,0],[0.75,0,0,0,0],[1,0,0,0,0],[1,0.25,0,0,0],[1,0.5,0,0,0],[1,0.75,0,0,0]];fontStyle=0;fontSize=12;fontColor=#1D2D3E;" vertex="1" parent="1">
          <mxGeometry x="-1100" y="-1958" width="50" height="50" as="geometry" />
        </mxCell>
      </root>
    </mxGraphModel>
  </diagram>
</mxfile>
